<svg width="676" height="717" viewBox="0 0 676 717" fill="none" xmlns="http://www.w3.org/2000/svg">
<rect x="99" y="68" width="509" height="611" fill="#92A6AC"/>
<rect x="99" y="68" width="481.554" height="593.754" fill="#31A5C9"/>
<path d="M301.846 209.883H287.482V163.338H302.482C306.997 163.338 310.861 164.269 314.073 166.133C317.285 167.982 319.747 170.641 321.459 174.11C323.171 177.565 324.027 181.701 324.027 186.519C324.027 191.368 323.164 195.542 321.437 199.042C319.709 202.527 317.194 205.209 313.891 207.088C310.588 208.951 306.573 209.883 301.846 209.883ZM293.118 204.883H301.482C305.331 204.883 308.52 204.141 311.05 202.656C313.581 201.171 315.467 199.057 316.709 196.315C317.952 193.572 318.573 190.307 318.573 186.519C318.573 182.762 317.959 179.527 316.732 176.815C315.505 174.088 313.671 171.997 311.232 170.542C308.793 169.072 305.755 168.338 302.118 168.338H293.118V204.883ZM302.161 286.883V251.974H307.525V286.883H302.161ZM304.888 246.156C303.843 246.156 302.941 245.8 302.184 245.088C301.441 244.375 301.07 243.519 301.07 242.519C301.07 241.519 301.441 240.663 302.184 239.951C302.941 239.239 303.843 238.883 304.888 238.883C305.934 238.883 306.828 239.239 307.57 239.951C308.328 240.663 308.706 241.519 308.706 242.519C308.706 243.519 308.328 244.375 307.57 245.088C306.828 245.8 305.934 246.156 304.888 246.156ZM301.996 364.701C299.784 364.701 297.777 364.285 295.974 363.451C294.17 362.603 292.739 361.383 291.678 359.792C290.617 358.186 290.087 356.247 290.087 353.974C290.087 351.974 290.481 350.353 291.269 349.11C292.057 347.853 293.11 346.868 294.428 346.156C295.746 345.444 297.201 344.913 298.792 344.565C300.398 344.201 302.011 343.913 303.633 343.701C305.754 343.429 307.474 343.224 308.792 343.088C310.125 342.936 311.095 342.686 311.701 342.338C312.322 341.989 312.633 341.383 312.633 340.519V340.338C312.633 338.095 312.019 336.353 310.792 335.11C309.58 333.868 307.739 333.247 305.269 333.247C302.708 333.247 300.701 333.807 299.246 334.929C297.792 336.05 296.769 337.247 296.178 338.519L291.087 336.701C291.996 334.58 293.208 332.929 294.724 331.747C296.254 330.55 297.92 329.716 299.724 329.247C301.542 328.762 303.33 328.519 305.087 328.519C306.208 328.519 307.496 328.656 308.951 328.929C310.42 329.186 311.837 329.724 313.201 330.542C314.58 331.36 315.724 332.595 316.633 334.247C317.542 335.898 317.996 338.11 317.996 340.883V363.883H312.633V359.156H312.36C311.996 359.913 311.39 360.724 310.542 361.588C309.693 362.451 308.564 363.186 307.155 363.792C305.746 364.398 304.027 364.701 301.996 364.701ZM302.814 359.883C304.936 359.883 306.724 359.466 308.178 358.633C309.648 357.8 310.754 356.724 311.496 355.406C312.254 354.088 312.633 352.701 312.633 351.247V346.338C312.405 346.61 311.905 346.86 311.133 347.088C310.375 347.3 309.496 347.489 308.496 347.656C307.511 347.807 306.549 347.944 305.61 348.065C304.686 348.171 303.936 348.262 303.36 348.338C301.966 348.519 300.663 348.815 299.451 349.224C298.254 349.618 297.284 350.216 296.542 351.019C295.814 351.807 295.451 352.883 295.451 354.247C295.451 356.11 296.14 357.519 297.519 358.474C298.913 359.413 300.678 359.883 302.814 359.883ZM297.849 440.883V405.974H303.03V411.247H303.394C304.03 409.519 305.182 408.118 306.849 407.042C308.515 405.966 310.394 405.429 312.485 405.429C312.879 405.429 313.371 405.436 313.962 405.451C314.553 405.466 315 405.489 315.303 405.519V410.974C315.121 410.929 314.705 410.86 314.053 410.769C313.417 410.663 312.742 410.61 312.03 410.61C310.333 410.61 308.818 410.966 307.485 411.679C306.167 412.375 305.121 413.345 304.349 414.588C303.591 415.815 303.212 417.216 303.212 418.792V440.883H297.849Z" fill="white"/>
<path d="M415.641 393V358.091H421.004V393H415.641ZM418.368 352.273C417.323 352.273 416.421 351.917 415.664 351.205C414.921 350.492 414.55 349.636 414.55 348.636C414.55 347.636 414.921 346.78 415.664 346.068C416.421 345.356 417.323 345 418.368 345C419.414 345 420.307 345.356 421.05 346.068C421.807 346.78 422.186 347.636 422.186 348.636C422.186 349.636 421.807 350.492 421.05 351.205C420.307 351.917 419.414 352.273 418.368 352.273ZM426.641 455.727V435.091H432.004V470H426.641V464.091H426.277C425.459 465.864 424.186 467.371 422.459 468.614C420.732 469.841 418.55 470.455 415.914 470.455C413.732 470.455 411.792 469.977 410.095 469.023C408.398 468.053 407.065 466.598 406.095 464.659C405.126 462.705 404.641 460.242 404.641 457.273V435.091H410.004V456.909C410.004 459.455 410.717 461.485 412.141 463C413.58 464.515 415.414 465.273 417.641 465.273C418.974 465.273 420.33 464.932 421.709 464.25C423.103 463.568 424.27 462.523 425.209 461.114C426.164 459.705 426.641 457.909 426.641 455.727ZM395.422 547V512.091H400.604V517.545H401.058C401.786 515.682 402.96 514.235 404.581 513.205C406.202 512.159 408.149 511.636 410.422 511.636C412.725 511.636 414.642 512.159 416.172 513.205C417.717 514.235 418.922 515.682 419.786 517.545H420.149C421.043 515.742 422.384 514.311 424.172 513.25C425.96 512.174 428.104 511.636 430.604 511.636C433.725 511.636 436.278 512.614 438.263 514.568C440.248 516.508 441.24 519.53 441.24 523.636V547H435.877V523.636C435.877 521.061 435.172 519.22 433.763 518.114C432.354 517.008 430.695 516.455 428.786 516.455C426.331 516.455 424.43 517.197 423.081 518.682C421.733 520.152 421.058 522.015 421.058 524.273V547H415.604V523.091C415.604 521.106 414.96 519.508 413.672 518.295C412.384 517.068 410.725 516.455 408.695 516.455C407.301 516.455 405.998 516.826 404.786 517.568C403.589 518.311 402.619 519.341 401.877 520.659C401.149 521.962 400.786 523.47 400.786 525.182V547H395.422Z" fill="white"/>
</svg>

