<svg width="59" height="53" viewBox="0 0 59 53" fill="none" xmlns="http://www.w3.org/2000/svg">
<path d="M52.5801 0.606445H6.43641C3.26404 0.606445 0.697297 2.93098 0.697297 5.77207L0.668457 52.2627L12.2044 41.9315H52.5801C55.7524 41.9315 58.348 39.6069 58.348 36.7658V5.77207C58.348 2.93098 55.7524 0.606445 52.5801 0.606445ZM17.9723 31.6002H12.2044V26.4346H17.9723V31.6002ZM17.9723 23.8518H12.2044V18.6861H17.9723V23.8518ZM17.9723 16.1033H12.2044V10.9377H17.9723V16.1033ZM38.1602 31.6002H23.7403V26.4346H38.1602V31.6002ZM46.8121 23.8518H23.7403V18.6861H46.8121V23.8518ZM46.8121 16.1033H23.7403V10.9377H46.8121V16.1033Z" fill="black"/>
</svg>
